PathFileType	4	(X/Y/Z)	C:/Users/beibeiliu/ov580/test_trc/User1\sequence.21_training_dense_right.trc
DataRate	CameraRate	NumFrames	NumMarkers	Units	OrigDataRate	OrigDataStartFrame	OrigNumFrames
120	120	25	19	mm	120	1	280
Frame#	Time	ThumbCMC			ThumbMCP			ThumbIP			ThumbTip			IndexMCP			IndexPIP			IndexTip			MiddleMCP			MiddlePIP			MiddleTip			RingMCP			RingPIP			RingTip			PinkyMCP			PinkyPIP			PinkyTip			BackHand1			BackHand2			BackHand3	
		X0	Y0	Z0	X1	Y1	Z1	X2	Y2	Z2	X3	Y3	Z3	X4	Y4	Z4	X5	Y5	Z5	X6	Y6	Z6	X7	Y7	Z7	X8	Y8	Z8	X9	Y9	Z9	X10	Y10	Z10	X11	Y11	Z11	X12	Y12	Z12	X13	Y13	Z13	X14	Y14	Z14	X15	Y15	Z15	X16	Y16	Z16	X17	Y17	Z17	X18	Y18	Z18	
0	0	137.993	50.7889	63.54	111.763	28.1354	55.0677	97.3703	10.2857	38.1864	86.3692	-7.06373	27.1203	153.297	49.6821	-18.5216	153.63	49.4086	-47.29	153.206	51.8682	-67.8773	184.979	53.7961	-25.1339	184.084	54.1189	-53.0223	192.115	54.7447	-82.1468	206.138	47.7087	-17.4452	211.868	49.8912	-44.2845	220.152	50.9152	-68.6753	229.546	33.1856	4.05926	243.451	31.6103	-8.85255	256.95	38.3148	-21.6844	201.011	59.5888	31.3272	201.141	74.4455	63.4253	167.103	70.0821	45.8926	
1	0.00833333	135.167	48.7836	59.4916	116	27.8103	55.3103	98.8017	9.28396	36.5013	84.3222	-7.60677	30.3527	152.973	48.8045	-18.3136	151.115	50.8738	-46.3601	156.805	52.3345	-71.2233	180.762	53.3402	-24.3724	183.301	54.5017	-56.9517	191.045	55.7762	-83.9291	203.7	47.996	-19.8305	215.161	49.1138	-40.6293	218.052	50.3853	-68.5673	228.214	32.737	4.52864	243.991	31.6465	-9.91067	255.736	37.912	-27.8021	200.412	58.6425	31.7358	201.135	72.8045	63.4418	166.175	69.9215	42.8348	
2	0.0166667	134.552	50.5094	64.5986	115.753	26.6748	53.0115	97.5443	9.70395	37.6683	86.8512	-7.23341	27.6722	153.283	49.1127	-18.7038	150.126	50.4376	-42.6837	157.086	51.9531	-68.0478	181.182	53.8816	-29.4796	182.669	54.6491	-56.4285	191.246	55.9789	-85.2344	206.259	48.0896	-17.9129	210.969	49.4536	-41.2213	218.534	49.5886	-67.5209	228.887	33.9608	3.05905	242.317	30.6882	-7.97815	253.504	37.5688	-24.5244	201.22	58.7652	30.627	204.074	73.0263	60.5766	168.151	70.7383	44.1858	
3	0.025	133.09	50.6093	61.5329	113.472	28.9128	55.4653	97.7544	10.2758	35.5364	84.4507	-7.37312	27.3083	151.019	50.0351	-17.2706	150.411	51.2485	-47.2951	158.163	52.7669	-69.9354	185.006	54.4994	-27.0656	186.895	55.1284	-57.241	193.566	55.1001	-83.5953	204.885	49.7445	-19.9012	212.969	51.0488	-45.0394	217.381	49.792	-68.582	228.19	34.313	4.02118	240.026	30.9767	-7.16219	257.027	38.3598	-26.4528	198.438	61.1981	29.9095	202.541	72.3065	63.5204	164.377	69.778	40.7438	
4	0.0333333	131.587	50.7189	59.5953	114.181	28.4208	53.6149	97.4182	10.8434	36.4406	85.0143	-7.81533	26.0598	152.706	50.3854	-21.3802	150.02	51.4878	-44.5223	158.192	51.7464	-69.7539	179.832	54.3936	-24.595	184.567	54.5106	-57.8286	189.98	55.4646	-82.6149	203.579	48.0092	-15.4841	210.239	50.6419	-46.49	217.845	50.9674	-70.1809	228.171	33.6861	6.83305	242.973	31.8747	-11.0215	257.306	37.1554	-27.0787	198.813	60.7368	32.7758	205.082	73.9901	62.4476	169.509	70.2585	43.8912	
5	0.0416667	132.509	49.1793	58.4945	116.255	27.3154	52.4378	100.711	11.169	39.649	86.8137	-6.63835	28.4998	149.867	49.1154	-20.223	154.483	50.3689	-47.1861	152.496	53.3527	-72.7675	182.547	53.7172	-24.8969	186.764	54.5837	-54.2796	189.393	54.5893	-81.4604	203.337	48.3711	-19.3774	213.018	50.5826	-42.9722	215.427	49.0068	-67.106	231.286	33.0435	4.1014	239.738	31.5689	-9.23966	259.13	39.2068	-26.5582	203.264	58.645	30.0453	202.476	71.7354	59.6391	169.29	68.6889	39.7738	
6	0.05	135.549	48.7731	59.6223	113.284	28.5215	54.7829	95.6936	10.8085	38.8475	83.6362	-7.3121	30.665	151.371	48.8081	-20.1954	149.305	50.7701	-47.2837	157.689	52.1437	-71.1864	180.073	54.0754	-26.2987	184.408	53.9507	-54.6056	190.287	54.4474	-83.2758	207.527	48.4572	-18.7088	214.056	49.9014	-43.089	218.749	49.2785	-66.4241	227.87	33.1956	4.93023	244.563	30.4182	-9.15816	259.304	38.3319	-27.3211	200.037	60.5075	32.3383	200.67	72.0648	61.8397	167.421	68.1645	40.7717	
7	0.0583333	135.327	49.2525	64.1843	114.253	27.3886	54.727	97.8746	10.2796	39.7605	84.0149	-8.21331	28.7807	149.561	49.2422	-20.0909	152.516	49.6169	-48.6986	155.275	53.0385	-73.3086	182.646	52.6612	-27.8092	185.083	53.145	-56.011	193.954	54.9511	-86.5656	208.413	46.9454	-19.3985	215.266	49.2541	-44.2008	215.752	49.4726	-66.6392	228.005	33.274	6.08564	240.205	30.5393	-8.12901	257.716	39.2396	-24.2749	199.801	60.0682	27.8936	201.874	72.7963	63.4236	165.53	69.1408	43.7141	
8	0.0666667	137.29	47.7728	58.6888	114.102	27.2128	54.7593	100.588	10.3893	40.053	85.6926	-8.39793	30.509	151.718	48.1959	-21.7527	151.19	50.1597	-47.2542	156.499	51.0804	-69.2066	183.331	52.6417	-26.7713	186.507	52.6985	-58.3761	190.673	53.1077	-81.3259	204.609	47.2258	-16.1852	211.633	48.3139	-42.1272	218.28	49.9424	-69.2752	230	32.9416	4.89959	240.937	29.9677	-11.125	257.208	36.4024	-22.0918	204.189	59.9129	29.2065	205.225	71.2521	60.1222	169.289	68.2269	44.2109	
9	0.075	135.404	49.1611	63.0989	113.962	25.1756	54.2363	99.4697	9.20416	40.0017	85.5535	-10.1599	27.9631	153.866	47.4669	-21.588	149.497	47.71	-44.0575	155.406	49.5931	-72.4094	180.342	52.4308	-29.651	185.795	51.7125	-58.1259	189.477	52.9612	-82.0413	205.806	45.9709	-16.1879	210.808	47.108	-42.259	216.722	47.8272	-67.8772	231.965	31.4297	5.80176	241.635	29.2586	-9.8509	253.99	37.5002	-25.9969	199.182	56.9096	32.0753	205.069	69.0437	59.1758	171.262	68.9989	44.2782	
10	0.0833333	137.172	47.7557	59.0207	111.344	24.5618	51.9737	96.3677	6.56987	39.3022	86.6006	-12.8951	26.7822	151.332	47.0617	-18.3522	149.385	47.9611	-48.5615	158.061	49.0373	-70.064	182.597	51.0419	-28.7929	187.715	51.7821	-54.3635	191.706	51.8255	-82.8588	207.725	45.6365	-19.7841	212.408	47.1839	-43.0723	217.445	47.072	-67.8467	232.156	29.7618	5.84734	241.181	28.2461	-9.99829	256.753	37.4484	-27.6369	199.303	57.13	33.1813	203.532	71.1287	62.2236	169.905	66.2708	44.6578	
11	0.0916667	136.372	47.5671	63.784	117.103	24.4083	52.8265	97.3516	4.64044	36.2306	84.9695	-14.8471	26.153	149.808	46.0637	-20.7416	151.874	47.2436	-47.4894	155.832	48.9278	-72.5629	179.713	50.21	-25.6429	186.231	51.4306	-55.9546	188.495	52.124	-83.416	206.944	45.674	-18.6391	213.663	46.4822	-42.4803	217.158	46.3912	-70.0479	229.631	29.6831	0.764681	244.057	28.277	-11.3191	257.742	35.4007	-25.1093	201.691	55.5558	28.3115	203.035	69.1071	61.0155	165.947	64.8797	40.8505	
12	0.1	134.134	46.9245	62.8562	116.005	23.378	52.9677	100.266	5.7062	40.5885	87.2752	-13.2847	29.35	149.381	46.6464	-22.7889	152.274	46.3365	-47.1388	152.663	47.4213	-68.3872	180.12	50.5099	-30.611	188.363	49.5864	-58.2685	191.78	50.3126	-83.6886	206.044	44.73	-20.2161	215.677	46.0082	-45.6881	215.851	46.4296	-69.9482	232.014	29.3659	2.31896	241.737	27.2276	-11.3901	255.44	34.4896	-27.3796	200.139	57.2439	28.9424	202.994	67.5585	60.1813	166.748	67.1851	43.6705	
13	0.108333	138.119	45.2587	59.6426	115.282	21.7751	53.1332	101.503	4.78603	38.4111	88.3017	-14.1131	31.0028	153.359	44.3804	-19.7992	153.666	45.8394	-46.5596	154.589	49.0136	-73.2073	184.861	49.267	-25.5211	187.657	49.4447	-54.021	192.993	50.8778	-85.6298	209.282	43.6551	-20.6501	209.819	44.6399	-44.2156	217.779	44.5383	-65.963	231.773	28.9853	6.34279	244.493	25.9751	-11.2598	253.008	33.0541	-26.2786	200.098	56.2922	32.2615	203.522	67.5059	58.9848	166.387	66.8218	43.7622	
14	0.116667	136.497	44.9643	60.3785	113.128	22.5522	56.0769	100.769	4.65001	39.284	87.1055	-16.611	26.1082	150.934	45.9258	-22.8916	153.64	45.485	-48.6419	153.461	47.8226	-70.4609	180.701	48.8746	-27.57	188.13	49.1988	-52.951	191.792	50.7276	-84.2382	209.633	43.2773	-18.6908	213.592	45.5234	-46.7333	217.282	45.3998	-70.7261	230.442	28.4446	5.54363	244.516	26.8429	-6.64813	257.226	33.8885	-27.7002	203.707	55.2531	31.1657	201.987	68.7003	60.9958	167.589	63.8608	40.902	
15	0.125	134.724	46.2163	59.7464	115.227	22.5571	53.8634	100.069	5.0898	39.3764	89.7055	-14.4639	28.1669	150.454	46.0821	-22.0359	150.67	45.6707	-48.7585	152.43	48.4534	-70.6868	182.378	49.3949	-29.5062	184.287	50.1355	-57.5545	189.5	51.4668	-82.7849	205.173	44.2441	-20.2281	216.039	45.8453	-41.6326	220.044	45.6437	-68.6483	231.476	28.723	5.13473	244.046	25.9982	-7.67599	256.341	33.2308	-26.5248	205.139	56.9676	31.8708	206.128	69.045	58.6995	168.392	65.2088	44.2024	
16	0.133333	138.651	45.4856	60.2248	113.86	21.9272	52.6207	102.723	2.86801	34.1148	91.035	-17.1148	24.7416	150.84	45.8611	-23.0223	149.478	45.8373	-47.3026	156.436	48.7938	-72.9742	181.3	50.3931	-26.1345	184.662	50.2287	-54.6393	194.674	50.7281	-81.656	205.238	43.8926	-15.6459	213.877	45.7935	-45.3049	218.55	46.4476	-70.1578	230.946	29.4685	7.31738	244.243	25.5954	-11.5716	257.179	33.1469	-28.6324	203.084	57.5777	32.2496	205.777	70.2284	62.1139	169.491	65.1085	45.0293	
17	0.141667	135.758	46.2405	59.0579	116.69	20.68	49.3214	101.462	3.4415	37.6929	92.2235	-15.6364	26.5685	153.59	46.0873	-23.3898	152.96	46.353	-47.6725	156	47.6448	-70.8112	184.636	50.0825	-28.9467	187.467	50.9354	-57.7015	190.346	52.5049	-84.2464	205.087	44.8767	-19.2539	216.389	46.0081	-46.8856	216.993	45.8936	-68.5277	231.227	29.0859	2.16876	245.231	25.8368	-11.7944	258.957	33.9197	-24.0576	204.699	57.5394	31.6122	205.779	70.5458	63.6653	166.852	65.5475	44.6044	
18	0.15	134.542	47.5862	63.2461	115.351	21.4138	50.0455	101.196	3.0836	38.7199	91.5338	-18.0661	25.2687	150.438	46.0198	-20.4129	152.259	46.5192	-44.9021	157.612	49.4818	-72.9911	181.809	51.2147	-29.9801	188.037	50.6381	-53.2626	195.332	52.5217	-84.4096	209.704	44.392	-15.2578	213.89	46.8531	-42.0503	218.159	46.5558	-69.2187	230.287	29.6481	5.52988	244.833	26.5465	-12.7368	257.195	32.1957	-24.1344	200.723	56.8876	29.813	202.67	67.5618	61.8395	169.942	66.0271	43.372	
19	0.158333	134.892	46.6658	59.865	117.698	21.523	48.3821	105.295	3.60011	37.2643	94.185	-18.7197	24.4341	151.669	45.0967	-18.5191	151.217	47.0783	-45.9452	152.655	48.8036	-69.7387	186.98	50.7223	-29.2377	188.5	51.2314	-56.0822	193.416	53.8919	-85.3906	209.25	44.9497	-20.2779	211.862	47.4073	-45.0502	218.45	47.6893	-71.6335	228.856	28.9087	5.01009	243.668	26.2941	-9.77865	256.266	35.1927	-29.5134	200.815	56.6122	27.6013	205.049	68.5052	58.4578	170.99	66.4567	44.9049	
20	0.166667	138.406	45.4023	57.8632	117.685	23.1144	51.9087	100.936	2.30499	37.0922	98.9705	-18.0191	22.2759	155.878	45.39	-21.2074	150.346	47.1632	-46.2466	153.486	48.6731	-71.0066	182.684	50.6455	-26.1536	187.893	51.7605	-53.3783	190.43	54.6016	-86.664	207.704	45.1106	-20.2454	212.354	47.2949	-46.7761	221.122	47.1203	-67.571	234.088	28.5685	4.98942	244.869	25.6568	-7.59301	259.242	33.5035	-25.1762	206.703	57.279	32.0827	207.72	69.6139	60.8975	166.956	64.5337	39.8185	
21	0.175	136.188	45.7316	58.1202	118.181	20.2076	48.1112	101.523	0.908345	34.8578	98.1299	-19.7985	24.038	153.535	46.0938	-24.0055	150.713	47.5912	-43.9961	154.115	50.325	-74.1306	183.989	50.4726	-28.7093	184.138	51.6994	-57.6872	191.438	54.1834	-85.0255	210.148	45.0062	-20.7718	213.528	46.2579	-42.7468	220.502	47.7733	-67.4813	234.113	28.6347	2.0421	243.489	25.9853	-11.5855	256.781	34.1012	-27.8465	200.992	57.5556	32.1833	205.747	67.9466	61.2323	171.385	65.9118	43.181	
22	0.183333	137.069	45.7409	58.9877	118.603	21.3852	51.2555	104.993	-0.00586986	30.9958	103.472	-22.8592	19.1761	151.544	46.8045	-23.0746	151.152	46.7168	-47.3405	155.532	49.8597	-70.954	185.281	49.3392	-25.0535	187.381	50.8157	-54.9294	191.293	53.9728	-86.6747	209.209	44.2755	-16.5429	211.972	47.4689	-43.5371	220.3	48.656	-68.0252	230.101	29.4068	-0.0318111	243.895	26.8482	-9.903	253.89	36.2983	-30.9028	200.986	57.0232	27.4366	203.454	67.8657	63.3078	169.799	64.2539	40.6644	
23	0.191667	134.927	45.3262	62.362	117.132	19.1864	50.002	110.394	-0.715411	33.171	109.864	-27.58	17.7442	153.211	45.7965	-18.6895	147.984	47.9398	-46.21	155.319	49.4524	-69.2935	179.886	50.0402	-25.0244	185.046	51.2153	-55.1144	188.812	53.8934	-82.6883	206.34	44.21	-18.727	213.657	48.7067	-46.5157	214.774	49.9423	-72.4241	230.041	30.2295	0.758668	237.903	29.0351	-10.7797	254.334	35.1838	-30.2988	201.891	54.6988	27.7373	204.196	69.3236	62.2583	168.59	65.5697	44.914	
24	0.2	135.972	43.9235	58.9761	118.049	17.5289	46.6539	110.403	-5.1137	30.0722	125.088	-29.8365	12.0849	149.469	46.0916	-22.5621	148.633	48.3048	-46.3016	151.934	50.5392	-71.8653	182.345	49.6476	-25.1413	182.12	52.5935	-55.1753	187.503	55.7154	-86.3273	202.425	46.1969	-21.7803	210.07	48.6052	-45.759	213.7	49.0019	-68.4483	226.675	30.8087	2.17378	239.079	30.2585	-16.1462	251.034	35.6101	-28.855	198.639	56.9271	27.7774	202.276	69.0351	63.3088	164.169	64.2434	45.1827	
